Coordinates
version=1
nRows=57
nColumns=21
inDegrees=no
endheader
time	ra_wr_s_p	ra_wr_e_f	ra_cmc1_ad_ab	ra_cmc1_f_e	ra_mcp1_f_e	ra_ip1_f_e	ra_mcp2_e_f	ra_pip2_e_f	ra_dip2_e_f	ra_mcp3_e_f	ra_pip3_e_f	ra_dip3_e_f	ra_mcp4_e_f	ra_pip4_e_f	ra_dip4_e_f	ra_mcp5_e_f	ra_pip5_e_f	ra_dip5_e_f	ra_el_e_f	ra_wr_ad_ab
0.375000	-1.031389	0.087300	0.798953	0.798953	-0.719030	-1.438060	1.438060	1.917413	1.438060	1.438060	1.917413	1.438060	1.438060	1.917413	1.438060	1.438060	1.917413	1.438060	0.173975	0.000000
0.376000	-1.033168	0.087300	0.799578	0.799578	-0.719593	-1.439186	1.439186	1.918915	1.439186	1.439186	1.918915	1.439186	1.439186	1.918915	1.439186	1.439186	1.918915	1.439186	0.170360	0.000000
0.377000	-1.034922	0.087300	0.800195	0.800195	-0.720148	-1.440296	1.440296	1.920394	1.440296	1.440296	1.920394	1.440296	1.440296	1.920394	1.440296	1.440296	1.920394	1.440296	0.166798	0.000000
0.378000	-1.036650	0.087300	0.800802	0.800802	-0.720695	-1.441389	1.441389	1.921852	1.441389	1.441389	1.921852	1.441389	1.441389	1.921852	1.441389	1.441389	1.921852	1.441389	0.163289	0.000000
0.379000	-1.038351	0.087300	0.801401	0.801401	-0.721233	-1.442466	1.442466	1.923288	1.442466	1.442466	1.923288	1.442466	1.442466	1.923288	1.442466	1.442466	1.923288	1.442466	0.159832	0.000000
0.380000	-1.040028	0.087300	0.801990	0.801990	-0.721764	-1.443527	1.443527	1.924703	1.443527	1.443527	1.924703	1.443527	1.443527	1.924703	1.443527	1.443527	1.924703	1.443527	0.156426	0.000000
0.381000	-1.041679	0.087300	0.802571	0.802571	-0.722286	-1.444572	1.444572	1.926096	1.444572	1.444572	1.926096	1.444572	1.444572	1.926096	1.444572	1.444572	1.926096	1.444572	0.153072	0.000000
0.382000	-1.043306	0.087300	0.803142	0.803142	-0.722801	-1.445601	1.445601	1.927468	1.445601	1.445601	1.927468	1.445601	1.445601	1.927468	1.445601	1.445601	1.927468	1.445601	0.149769	0.000000
0.383000	-1.044907	0.087300	0.803705	0.803705	-0.723307	-1.446615	1.446615	1.928819	1.446615	1.446615	1.928819	1.446615	1.446615	1.928819	1.446615	1.446615	1.928819	1.446615	0.146516	0.000000
0.384000	-1.046484	0.087300	0.804260	0.804260	-0.723806	-1.447613	1.447613	1.930150	1.447613	1.447613	1.930150	1.447613	1.447613	1.930150	1.447613	1.447613	1.930150	1.447613	0.143312	0.000000
0.385000	-1.048037	0.087300	0.804806	0.804806	-0.724298	-1.448595	1.448595	1.931460	1.448595	1.448595	1.931460	1.448595	1.448595	1.931460	1.448595	1.448595	1.931460	1.448595	0.140158	0.000000
0.386000	-1.049566	0.087300	0.805343	0.805343	-0.724781	-1.449563	1.449563	1.932750	1.449563	1.449563	1.932750	1.449563	1.449563	1.932750	1.449563	1.449563	1.932750	1.449563	0.137053	0.000000
0.387000	-1.051071	0.087300	0.805873	0.805873	-0.725258	-1.450515	1.450515	1.934020	1.450515	1.450515	1.934020	1.450515	1.450515	1.934020	1.450515	1.450515	1.934020	1.450515	0.133995	0.000000
0.388000	-1.052553	0.087300	0.806393	0.806393	-0.725726	-1.451453	1.451453	1.935270	1.451453	1.451453	1.935270	1.451453	1.451453	1.935270	1.451453	1.451453	1.935270	1.451453	0.130986	0.000000
0.389000	-1.054011	0.087300	0.806906	0.806906	-0.726188	-1.452376	1.452376	1.936501	1.452376	1.452376	1.936501	1.452376	1.452376	1.936501	1.452376	1.452376	1.936501	1.452376	0.128024	0.000000
0.390000	-1.055447	0.087300	0.807411	0.807411	-0.726642	-1.453284	1.453284	1.937712	1.453284	1.453284	1.937712	1.453284	1.453284	1.937712	1.453284	1.453284	1.937712	1.453284	0.125108	0.000000
0.391000	-1.056859	0.087300	0.807907	0.807907	-0.727089	-1.454178	1.454178	1.938904	1.454178	1.454178	1.938904	1.454178	1.454178	1.938904	1.454178	1.454178	1.938904	1.454178	0.122239	0.000000
0.392000	-1.058249	0.087300	0.808396	0.808396	-0.727529	-1.455057	1.455057	1.940077	1.455057	1.455057	1.940077	1.455057	1.455057	1.940077	1.455057	1.455057	1.940077	1.455057	0.119415	0.000000
0.393000	-1.059617	0.087300	0.808877	0.808877	-0.727961	-1.455923	1.455923	1.941230	1.455923	1.455923	1.941230	1.455923	1.455923	1.941230	1.455923	1.455923	1.941230	1.455923	0.116637	0.000000
0.394000	-1.060963	0.087300	0.809350	0.809350	-0.728387	-1.456774	1.456774	1.942366	1.456774	1.456774	1.942366	1.456774	1.456774	1.942366	1.456774	1.456774	1.942366	1.456774	0.113904	0.000000
0.395000	-1.062286	0.087300	0.809815	0.809815	-0.728806	-1.457612	1.457612	1.943483	1.457612	1.457612	1.943483	1.457612	1.457612	1.943483	1.457612	1.457612	1.943483	1.457612	0.111215	0.000000
0.396000	-1.063589	0.087300	0.810273	0.810273	-0.729218	-1.458436	1.458436	1.944581	1.458436	1.458436	1.944581	1.458436	1.458436	1.944581	1.458436	1.458436	1.944581	1.458436	0.108570	0.000000
0.397000	-1.064869	0.087300	0.810723	0.810723	-0.729623	-1.459247	1.459247	1.945662	1.459247	1.459247	1.945662	1.459247	1.459247	1.945662	1.459247	1.459247	1.945662	1.459247	0.105969	0.000000
0.398000	-1.066129	0.087300	0.811166	0.811166	-0.730022	-1.460044	1.460044	1.946725	1.460044	1.460044	1.946725	1.460044	1.460044	1.946725	1.460044	1.460044	1.946725	1.460044	0.103410	0.000000
0.399000	-1.067367	0.087300	0.811602	0.811602	-0.730414	-1.460827	1.460827	1.947770	1.460827	1.460827	1.947770	1.460827	1.460827	1.947770	1.460827	1.460827	1.947770	1.460827	0.100894	0.000000
0.400000	-1.068585	0.087300	0.812030	0.812030	-0.730799	-1.461598	1.461598	1.948797	1.461598	1.461598	1.948797	1.461598	1.461598	1.948797	1.461598	1.461598	1.948797	1.461598	0.098421	0.000000
0.401000	-1.069783	0.087300	0.812451	0.812451	-0.731178	-1.462356	1.462356	1.949808	1.462356	1.462356	1.949808	1.462356	1.462356	1.949808	1.462356	1.462356	1.949808	1.462356	0.095988	0.000000
0.402000	-1.070960	0.087300	0.812865	0.812865	-0.731550	-1.463101	1.463101	1.950801	1.463101	1.463101	1.950801	1.463101	1.463101	1.950801	1.463101	1.463101	1.950801	1.463101	0.093597	0.000000
0.403000	-1.072117	0.087300	0.813272	0.813272	-0.731916	-1.463833	1.463833	1.951777	1.463833	1.463833	1.951777	1.463833	1.463833	1.951777	1.463833	1.463833	1.951777	1.463833	0.091247	0.000000
0.404000	-1.073254	0.087300	0.813671	0.813671	-0.732276	-1.464553	1.464553	1.952737	1.464553	1.464553	1.952737	1.464553	1.464553	1.952737	1.464553	1.464553	1.952737	1.464553	0.088937	0.000000
0.405000	-1.074372	0.087300	0.814064	0.814064	-0.732630	-1.465260	1.465260	1.953680	1.465260	1.465260	1.953680	1.465260	1.465260	1.953680	1.465260	1.465260	1.953680	1.465260	0.086667	0.000000
0.406000	-1.075470	0.087300	0.814450	0.814450	-0.732977	-1.465955	1.465955	1.954606	1.465955	1.465955	1.954606	1.465955	1.465955	1.954606	1.465955	1.465955	1.954606	1.465955	0.084436	0.000000
0.407000	-1.076549	0.087300	0.814830	0.814830	-0.733319	-1.466638	1.466638	1.955517	1.466638	1.466638	1.955517	1.466638	1.466638	1.955517	1.466638	1.466638	1.955517	1.466638	0.082244	0.000000
0.408000	-1.077610	0.087300	0.815203	0.815203	-0.733654	-1.467309	1.467309	1.956411	1.467309	1.467309	1.956411	1.467309	1.467309	1.956411	1.467309	1.467309	1.956411	1.467309	0.080091	0.000000
0.409000	-1.078651	0.087300	0.815569	0.815569	-0.733984	-1.467968	1.467968	1.957290	1.467968	1.467968	1.957290	1.467968	1.467968	1.957290	1.467968	1.467968	1.957290	1.467968	0.077976	0.000000
0.410000	-1.079674	0.087300	0.815928	0.815928	-0.734307	-1.468615	1.468615	1.958153	1.468615	1.468615	1.958153	1.468615	1.468615	1.958153	1.468615	1.468615	1.958153	1.468615	0.075898	0.000000
0.411000	-1.080678	0.087300	0.816281	0.816281	-0.734625	-1.469250	1.469250	1.959000	1.469250	1.469250	1.959000	1.469250	1.469250	1.959000	1.469250	1.469250	1.959000	1.469250	0.073858	0.000000
0.412000	-1.081665	0.087300	0.816628	0.816628	-0.734937	-1.469875	1.469875	1.959833	1.469875	1.469875	1.959833	1.469875	1.469875	1.959833	1.469875	1.469875	1.959833	1.469875	0.071854	0.000000
0.413000	-1.082633	0.087300	0.816969	0.816969	-0.735244	-1.470487	1.470487	1.960650	1.470487	1.470487	1.960650	1.470487	1.470487	1.960650	1.470487	1.470487	1.960650	1.470487	0.069887	0.000000
0.414000	-1.083584	0.087300	0.817303	0.817303	-0.735544	-1.471089	1.471089	1.961452	1.471089	1.471089	1.961452	1.471089	1.471089	1.961452	1.471089	1.471089	1.961452	1.471089	0.067957	0.000000
0.415000	-1.084517	0.087300	0.817631	0.817631	-0.735840	-1.471679	1.471679	1.962239	1.471679	1.471679	1.962239	1.471679	1.471679	1.962239	1.471679	1.471679	1.962239	1.471679	0.066061	0.000000
0.416000	-1.085432	0.087300	0.817953	0.817953	-0.736129	-1.472259	1.472259	1.963012	1.472259	1.472259	1.963012	1.472259	1.472259	1.963012	1.472259	1.472259	1.963012	1.472259	0.064201	0.000000
0.417000	-1.086331	0.087300	0.818269	0.818269	-0.736414	-1.472827	1.472827	1.963770	1.472827	1.472827	1.963770	1.472827	1.472827	1.963770	1.472827	1.472827	1.963770	1.472827	0.062376	0.000000
0.418000	-1.087213	0.087300	0.818579	0.818579	-0.736693	-1.473385	1.473385	1.964514	1.473385	1.473385	1.964514	1.473385	1.473385	1.964514	1.473385	1.473385	1.964514	1.473385	0.060585	0.000000
0.419000	-1.088078	0.087300	0.818883	0.818883	-0.736966	-1.473933	1.473933	1.965244	1.473933	1.473933	1.965244	1.473933	1.473933	1.965244	1.473933	1.473933	1.965244	1.473933	0.058828	0.000000
0.420000	-1.088926	0.087300	0.819181	0.819181	-0.737235	-1.474470	1.474470	1.965959	1.474470	1.474470	1.965959	1.474470	1.474470	1.965959	1.474470	1.474470	1.965959	1.474470	0.057105	0.000000
0.421000	-1.089758	0.087300	0.819474	0.819474	-0.737498	-1.474996	1.474996	1.966661	1.474996	1.474996	1.966661	1.474996	1.474996	1.966661	1.474996	1.474996	1.966661	1.474996	0.055415	0.000000
0.422000	-1.090574	0.087300	0.819760	0.819760	-0.737756	-1.475512	1.475512	1.967350	1.475512	1.475512	1.967350	1.475512	1.475512	1.967350	1.475512	1.475512	1.967350	1.475512	0.053758	0.000000
0.423000	-1.091374	0.087300	0.820042	0.820042	-0.738009	-1.476018	1.476018	1.968025	1.476018	1.476018	1.968025	1.476018	1.476018	1.968025	1.476018	1.476018	1.968025	1.476018	0.052133	0.000000
0.424000	-1.092158	0.087300	0.820317	0.820317	-0.738257	-1.476515	1.476515	1.968686	1.476515	1.476515	1.968686	1.476515	1.476515	1.968686	1.476515	1.476515	1.968686	1.476515	0.050541	0.000000
0.425000	-1.092926	0.087300	0.820587	0.820587	-0.738500	-1.477001	1.477001	1.969334	1.477001	1.477001	1.969334	1.477001	1.477001	1.969334	1.477001	1.477001	1.969334	1.477001	0.048980	0.000000
0.426000	-1.093679	0.087300	0.820852	0.820852	-0.738739	-1.477477	1.477477	1.969970	1.477477	1.477477	1.969970	1.477477	1.477477	1.969970	1.477477	1.477477	1.969970	1.477477	0.047451	0.000000
0.427000	-1.094417	0.087300	0.821111	0.821111	-0.738972	-1.477944	1.477944	1.970592	1.477944	1.477944	1.970592	1.477944	1.477944	1.970592	1.477944	1.477944	1.970592	1.477944	0.045952	0.000000
0.428000	-1.095139	0.087300	0.821365	0.821365	-0.739201	-1.478401	1.478401	1.971202	1.478401	1.478401	1.971202	1.478401	1.478401	1.971202	1.478401	1.478401	1.971202	1.478401	0.044485	0.000000
0.429000	-1.095847	0.087300	0.821614	0.821614	-0.739425	-1.478849	1.478849	1.971799	1.478849	1.478849	1.971799	1.478849	1.478849	1.971799	1.478849	1.478849	1.971799	1.478849	0.043047	0.000000
0.430000	-1.096540	0.087300	0.821858	0.821858	-0.739644	-1.479288	1.479288	1.972383	1.479288	1.479288	1.972383	1.479288	1.479288	1.972383	1.479288	1.479288	1.972383	1.479288	0.041640	0.000000
0.431000	-1.097218	0.087300	0.822096	0.822096	-0.739858	-1.479717	1.479717	1.972956	1.479717	1.479717	1.972956	1.479717	1.479717	1.972956	1.479717	1.479717	1.972956	1.479717	0.040262	0.000000
